<svg xmlns="http://www.w3.org/2000/svg" viewBox="0 0 600 400" fill="none">
  <!-- Background -->
  <rect width="600" height="400" fill="#F5F8FA"/>
  
  <!-- Monitor -->
  <rect x="100" y="80" width="400" height="250" rx="10" fill="#333"/>
  <rect x="110" y="90" width="380" height="220" fill="#1A1A1A"/>
  
  <!-- Monitor stand -->
  <rect x="270" y="330" width="60" height="40" rx="5" fill="#333"/>
  <rect x="200" y="370" width="200" height="10" rx="5" fill="#333"/>
  
  <!-- Code lines on screen -->
  <rect x="130" y="110" width="120" height="8" rx="4" fill="#FF6B35"/>
  <rect x="130" y="130" width="200" height="8" rx="4" fill="#19857B"/>
  <rect x="150" y="150" width="180" height="8" rx="4" fill="#FF6B35" opacity="0.7"/>
  <rect x="150" y="170" width="150" height="8" rx="4" fill="#19857B" opacity="0.7"/>
  <rect x="130" y="190" width="220" height="8" rx="4" fill="#FF6B35"/>
  <rect x="150" y="210" width="160" height="8" rx="4" fill="#19857B" opacity="0.7"/>
  <rect x="130" y="230" width="190" height="8" rx="4" fill="#FF6B35" opacity="0.7"/>
  <rect x="130" y="250" width="140" height="8" rx="4" fill="#19857B"/>
  
  <!-- Cursor -->
  <rect x="290" y="250" width="3" height="10" fill="#fff">
    <animate attributeName="opacity" values="1;0;1" dur="1s" repeatCount="indefinite"/>
  </rect>
  
  <!-- Decorative elements -->
  <circle cx="50" cy="50" r="30" fill="#FF6B35" opacity="0.2"/>
  <circle cx="550" cy="350" r="40" fill="#19857B" opacity="0.2"/>
</svg>

