<svg
  xmlns="http://www.w3.org/2000/svg"
  width="137"
  height="60"
  viewBox="0 0 137 60"
  fill="none"
>
  <path
    d="M49.661 18.6584C53.5015 19.5063 56.5442 21.1177 60.1035 23.1884C73.1478 13.3866 89.5783 15.4464 107.237 21.4737C83.1143 6.76689 51.0133 8.3104 29.7632 21.3487C35.4347 19.4547 44.0408 17.4166 49.661 18.6557V18.6584Z"
    fill="#006AB6"
  />
  <path
    d="M73.3574 30.2441V38.2769H76.1783V33.0105H82.7154C81.9932 40.1058 79.221 44.4673 75.083 45.6004L75.7672 48.981C83.4618 46.7825 85.2063 37.94 85.7959 30.2441H73.3601H73.3574Z"
    fill="black"
  />
  <path d="M95.7029 37.3883H87.9001V40.6716H95.7029V37.3883Z" fill="black" />
  <path
    d="M61.606 29.3229H58.658V48.981H61.606V39.9998C64.3971 40.4699 67.2748 40.9346 69.3898 41.6574L69.4845 38.0459C66.3742 37.4318 64.2835 37.0514 61.606 36.8068V29.3257V29.3229Z"
    fill="black"
  />
  <path
    d="M66.7339 33.4568L65.9929 29.8284L64.3025 30.1817L65.0408 33.8101L66.7339 33.4568Z"
    fill="black"
  />
  <path
    d="M67.1802 29.6219L67.9185 33.2503L69.5927 32.897L68.8543 29.2686L67.1802 29.6219Z"
    fill="black"
  />
  <path
    d="M50.2304 32.1736V29.1626H47.3608V32.1736H42.8441V40.2063H45.665V34.9399H51.8288C51.7666 40.2933 50.3386 45.2499 44.191 45.576L44.8807 48.981C51.6639 48.5245 55.1258 42.3776 54.7471 32.1736H50.2304Z"
    fill="black"
  />
  <path d="M38.6004 29.8828H28.6799V32.6496H38.6004V29.8828Z" fill="black" />
  <path
    d="M27.5792 35.4725V38.3802H36.3881C36.0933 44.4265 31.7497 45.5189 29.0208 45.633L29.6996 48.9837C35.4091 48.2663 38.9467 45.8423 39.5363 35.4752H27.5792V35.4725Z"
    fill="black"
  />
  <path
    d="M16.9096 31.1056C17.2287 29.9154 17.5019 28.8012 17.5019 28.8012H14.827C14.1292 31.4779 12.8959 34.9291 11 36.9291L11.7546 40.652C13.8507 38.3666 14.7188 37.2851 16.0495 33.872H21.4641C20.4959 40.8558 17.9292 44.3749 13.9372 45.6005L14.6215 48.981C22.0321 46.8641 23.9145 38.5895 24.5717 31.1056H16.9069H16.9096Z"
    fill="black"
  />
  <path
    d="M104.617 31.1056C104.936 29.9154 105.21 28.8012 105.21 28.8012H102.535C101.837 31.4779 100.604 34.9291 98.7078 36.9291L99.4623 40.652C101.558 38.3666 102.427 37.2851 103.757 33.872H109.172C108.204 40.8558 105.637 44.3749 101.645 45.6005L102.329 48.981C109.74 46.8641 111.622 38.5895 112.279 31.1056H104.615H104.617Z"
    fill="black"
  />
  <path
    d="M126 44.7853C125.045 43.845 123.398 42.1249 122.257 40.4998C123.679 37.2498 124.81 33.6872 124.583 30.073H124.575C122.895 30.073 116.788 30.073 115.003 30.073V32.8394C116.45 32.8421 120.266 32.8421 121.662 32.8421C120.98 37.6819 118.665 42.4782 114.624 45.3505V45.3641L115.36 49C117.532 47.4185 119.412 45.4619 120.821 43.1874C122.43 45.5815 123.958 47.2636 126 49V44.788V44.7853Z"
    fill="black"
  />
</svg>
