<svg xmlns="http://www.w3.org/2000/svg" viewBox="0 0 317.11 100"><script xmlns="" id="eppiocemhmnlbhjplcgkofciiegomcon"/><script xmlns=""/><script xmlns=""/><g fill="#105d9b"><path d="m76.09 25-1.64 9.35h-42.27l1.64-9.35z"/><path d="m136.96 30.08-3.04 17.38c-1.83 10.1-5.6 16.46-12.45 20.96-5.77 3.93-12.44 5.43-24.71 5.54h-16l1.75-9.99h16.17c6.88-.06 12.65-.98 15.63-2.54 4.58-2.08 7.97-6.58 8.96-11.89l3.41-19.46z"/><path d="m155.13 34.82 1.72-9.82h9.88l-1.72 9.82h14.32l1.72-9.82h10.28l-1.72 9.82h9.99l-1.64 9.35h-9.99l-1.18 6.76c-2.36 15.13-12.29 23.67-27 23.27h-12.24l1.63-9.3h13.05c8.35.11 12.67-4.1 14.28-13.91l1.19-6.81h-14.32l-2.15 12.3h-9.88l2.15-12.3h-9.59l1.64-9.35h9.59z"/><path d="m231.64 44.75-1.72 9.82h-26.77l1.72-9.82z"/><path d="m280.52 25h6.44l-1.73 9.93h-6.44z"/><path d="m290.68 25h6.44l-1.74 9.93h-6.44z"/><path d="m109.95 34.36c-5.44-1.91-13.46-4.36-21.11-6.43l-1.79 10.22c6.04 1.66 13.71 4.09 21.02 6.65z"/><path d="m266.87 50.35c2.74-4.03 3.87-5.76 7.65-12.23l1.73-9.08h-35.64l-1.58 8.95h24.58c-12.87 22.34-18.65 27.66-30.34 27.83h-4.39l-1.61 9.18h6.81c10.17-.06 17.74-4.33 25.46-14.43 4.01 9.76 4 9.82 5.32 14.15h11.96c-2.93-9.01-5.14-14.49-9.94-24.36z"/><path d="m67.69 64.82c.27-.32.54-.66.79-1 .03-.04.06-.08.09-.12.27-.37.54-.75.79-1.14 0 0 .01-.02.02-.03 2.54-3.94 4.26-9.22 6.12-18.1.24-1.12.49-2.27.75-3.51h-47.32s-1.65 9.4-1.65 9.4h36.33c-3.22 12.72-6.69 14.39-27.25 14.16h-9.59l-1.77 10.1h10.97c15.79-.12 22.1-1.56 28.39-6.47.39-.33.77-.66 1.13-1 .07-.07.14-.14.22-.21.29-.28.58-.56.85-.84.06-.07.12-.13.19-.2.28-.29.55-.59.81-.9.05-.05.09-.11.14-.16z"/></g><path d="m0 0h317.11v100h-317.11z" fill="none"/></svg>
